<svg width="28" height="28" viewBox="0 0 28 28" fill="none" xmlns="http://www.w3.org/2000/svg">
<g clip-path="url(#clip0_639_1818)">
<path d="M12.25 2.33337C11.4333 2.33337 10.85 2.80004 10.6167 3.50004H5.83333C4.55 3.50004 3.5 4.55004 3.5 5.83337V22.1667C3.5 23.45 4.55 24.5 5.83333 24.5H14C14 25.2 14.4667 25.6667 15.1667 25.6667H23.3333C24.0333 25.6667 24.5 25.2 24.5 24.5V12.8334C24.5 12.1334 24.0333 11.6667 23.3333 11.6667H21V5.83337C21 4.55004 19.95 3.50004 18.6667 3.50004H13.8833C13.65 2.80004 13.0667 2.33337 12.25 2.33337ZM12.25 3.50004C12.6 3.50004 12.8333 3.73337 12.8333 4.08337C12.8333 4.43337 12.6 4.66671 12.25 4.66671C11.9 4.66671 11.6667 4.43337 11.6667 4.08337C11.6667 3.73337 11.9 3.50004 12.25 3.50004ZM6.41667 5.83337H9.33333V7.00004H15.1667V5.83337H18.0833C18.4333 5.83337 18.6667 6.06671 18.6667 6.41671V11.6667H15.1667C14.4667 11.6667 14 12.1334 14 12.8334V22.1667H6.41667C6.06667 22.1667 5.83333 21.9334 5.83333 21.5834V6.41671C5.83333 6.06671 6.06667 5.83337 6.41667 5.83337ZM12.3667 9.80004H7.7V12.1334H12.3667V9.80004ZM12.3667 13.3H7.7V15.6334H12.3667V13.3ZM12.3667 16.9167H7.7V19.25H12.3667V16.9167ZM16.3333 14H22.1667V16.3334H16.3333V14ZM16.3333 17.5H18.6667V19.8334H16.3333V17.5ZM19.8333 17.5H22.1667V19.8334H19.8333V17.5ZM16.3333 21H18.6667V23.3334H16.3333V21ZM19.8333 21H22.1667V23.3334H19.8333V21Z" fill="black"/>
</g>
<defs>
<clipPath id="clip0_639_1818">
<rect width="28" height="28" fill="white"/>
</clipPath>
</defs>
</svg>
