<svg width="32" height="32" viewBox="0 0 32 32" fill="none" xmlns="http://www.w3.org/2000/svg">
<path d="M15.6875 17.7875C15.6875 17.8704 15.7204 17.9498 15.779 18.0084C15.8376 18.0671 15.9171 18.1 16 18.1C16.0829 18.1 16.1624 18.0671 16.221 18.0084C16.2796 17.9498 16.3125 17.8704 16.3125 17.7875C16.3125 17.7046 16.2796 17.6251 16.221 17.5665C16.1624 17.5079 16.0829 17.475 16 17.475C15.9171 17.475 15.8376 17.5079 15.779 17.5665C15.7204 17.6251 15.6875 17.7046 15.6875 17.7875Z" fill="#E73B37"/>
<path d="M19.1187 19.2844H12.7031L3.375 12.1969V12.825L12.5312 19.7844H19.2812L28.625 12.8063V12.1813L19.1187 19.2844Z" fill="#E73B37"/>
<path d="M22 8.02502V5.0719H10V8.02502H2V26.9313H30V8.02502H22ZM11.375 6.4469H20.625V8.0219H11.375V6.4469ZM28.625 25.5563H3.375V24.0313H28.625V25.5563ZM28.625 23.5282H3.375V9.40002H28.625V23.5282Z" fill="#323743"/>
</svg>
