<svg width="36" height="36" viewBox="0 0 36 36" fill="none" xmlns="http://www.w3.org/2000/svg">
<path fill-rule="evenodd" clip-rule="evenodd" d="M14.2818 15.1212H10.198C9.59877 15.1162 9.02211 15.3496 8.59489 15.7697C8.16766 16.1899 7.92486 16.7626 7.91992 17.3618V25.842C7.93101 27.0893 8.95073 28.0917 10.198 28.0812H14.2818C14.881 28.0862 15.4577 27.8529 15.885 27.4327C16.3122 27.0125 16.555 26.4399 16.5599 25.8405V17.3618C16.555 16.7626 16.3122 16.1899 15.885 15.7697C15.4577 15.3496 14.881 15.1162 14.2818 15.1212Z" stroke="#323743" stroke-width="2" stroke-linecap="round" stroke-linejoin="round"/>
<path fill-rule="evenodd" clip-rule="evenodd" d="M14.2818 6.48134H10.198C8.97582 6.44744 7.95677 7.40916 7.91992 8.63126V10.0914C7.95677 11.3135 8.97582 12.2752 10.198 12.2413H14.2818C15.504 12.2752 16.5231 11.3135 16.5599 10.0914V8.63126C16.5231 7.40916 15.504 6.44744 14.2818 6.48134Z" stroke="#323743" stroke-width="2" stroke-linecap="round" stroke-linejoin="round"/>
<path fill-rule="evenodd" clip-rule="evenodd" d="M21.718 19.4406H25.8004C26.3999 19.4459 26.9769 19.2128 27.4044 18.7926C27.832 18.3723 28.075 17.7994 28.0799 17.2V8.72119C28.075 8.12197 27.8323 7.54926 27.405 7.12905C26.9778 6.70884 26.401 6.47556 25.8019 6.48055H21.718C21.1188 6.47556 20.5421 6.70884 20.1149 7.12905C19.6876 7.54926 19.4448 8.12197 19.4399 8.72119V17.2C19.4448 17.7991 19.6876 18.3718 20.1149 18.792C20.5421 19.2122 21.1188 19.4455 21.718 19.4406Z" stroke="#323743" stroke-width="2" stroke-linecap="round" stroke-linejoin="round"/>
<path fill-rule="evenodd" clip-rule="evenodd" d="M21.718 28.0812H25.8004C27.0231 28.1159 28.0431 27.154 28.0799 25.9313V24.4711C28.0431 23.249 27.024 22.2873 25.8019 22.3212H21.718C20.4959 22.2873 19.4768 23.249 19.4399 24.4711V25.9298C19.4759 27.1525 20.4953 28.115 21.718 28.0812Z" stroke="#323743" stroke-width="2" stroke-linecap="round" stroke-linejoin="round"/>
</svg>
