<svg width="18" height="24" viewBox="0 0 18 24" fill="none" xmlns="http://www.w3.org/2000/svg">
<g clip-path="url(#clip0_1495_3399)">
<path d="M15.21 0.43457H6.885C6.48 0.43457 6.255 0.659571 6.21 0.704571L0.27 6.64457C0.225 6.68957 0 6.91457 0 7.27457V20.9996C0 22.3946 1.125 23.5196 2.52 23.5196H15.165C16.56 23.5196 17.685 22.3946 17.685 20.9996V2.95457C17.73 1.55957 16.605 0.43457 15.21 0.43457ZM5.94 3.62957V5.65457C5.94 6.01457 5.67 6.28457 5.31 6.28457H3.24L5.94 3.62957ZM15.84 21.0446C15.84 21.4046 15.525 21.6746 15.21 21.6746H2.52C2.16 21.6746 1.89 21.3596 1.89 21.0446V8.26457H5.31C6.705 8.26457 7.83 7.13957 7.83 5.74457V2.32457H15.165C15.525 2.32457 15.795 2.59457 15.795 2.95457L15.84 21.0446Z" fill="black"/>
</g>
<defs>
<clipPath id="clip0_1495_3399">
<rect width="18" height="24" fill="white"/>
</clipPath>
</defs>
</svg>
