<svg width="24" height="24" viewBox="0 0 24 24" fill="none" xmlns="http://www.w3.org/2000/svg">
<g clip-path="url(#clip0_1560_2009)">
<path d="M22.9574 22.4348H20.6095V1.5652H21.3922C21.8244 1.5652 22.1748 1.21481 22.1748 0.782578C22.1748 0.350344 21.8244 0 21.3922 0C19.8636 0 3.31914 0 2.60955 0C2.17736 0 1.82692 0.350391 1.82692 0.782625C1.82692 1.21486 2.17731 1.56525 2.60955 1.56525H3.39217V22.4348H1.04434C0.612156 22.4348 0.261719 22.7852 0.261719 23.2174C0.261719 23.6497 0.612109 24 1.04434 24C1.51933 24 20.9881 24 22.9574 24C23.3896 24 23.74 23.6496 23.74 23.2174C23.74 22.7851 23.3896 22.4348 22.9574 22.4348ZM19.0443 22.4348H4.95737V1.5652H19.0443V22.4348Z" fill="black"/>
<path d="M10.4346 3.65234H7.30411C6.87192 3.65234 6.52148 4.00273 6.52148 4.43497V7.56542C6.52148 7.99761 6.87187 8.34805 7.30411 8.34805H10.4346C10.8667 8.34805 11.2172 7.99766 11.2172 7.56542V4.43497C11.2171 4.00273 10.8667 3.65234 10.4346 3.65234ZM9.65194 6.7828H8.08673V5.21759H9.65194V6.7828Z" fill="black"/>
<path d="M16.6963 3.65234H13.5658C13.1336 3.65234 12.7832 4.00273 12.7832 4.43497V7.56542C12.7832 7.99761 13.1336 8.34805 13.5658 8.34805H16.6963C17.1285 8.34805 17.4789 7.99766 17.4789 7.56542V4.43497C17.4789 4.00273 17.1285 3.65234 16.6963 3.65234ZM15.9137 6.7828H14.3485V5.21759H15.9137V6.7828Z" fill="black"/>
<path d="M10.4346 9.91309H7.30411C6.87192 9.91309 6.52148 10.2635 6.52148 10.6957V13.8262C6.52148 14.2584 6.87187 14.6088 7.30411 14.6088H10.4346C10.8667 14.6088 11.2172 14.2584 11.2172 13.8262V10.6957C11.2171 10.2635 10.8667 9.91309 10.4346 9.91309ZM9.65194 13.0435H8.08673V11.4783H9.65194V13.0435Z" fill="black"/>
<path d="M16.6963 9.91309H13.5658C13.1336 9.91309 12.7832 10.2635 12.7832 10.6957V13.8262C12.7832 14.2584 13.1336 14.6088 13.5658 14.6088H16.6963C17.1285 14.6088 17.4789 14.2584 17.4789 13.8262V10.6957C17.4789 10.2635 17.1285 9.91309 16.6963 9.91309ZM15.9137 13.0435H14.3485V11.4783H15.9137V13.0435Z" fill="black"/>
<path d="M10.4346 16.1738H7.30411C6.87192 16.1738 6.52148 16.5242 6.52148 16.9565V20.0869C6.52148 20.5191 6.87187 20.8695 7.30411 20.8695H10.4346C10.8667 20.8695 11.2172 20.5191 11.2172 20.0869V16.9565C11.2171 16.5243 10.8667 16.1738 10.4346 16.1738ZM9.65194 19.3043H8.08673V17.7391H9.65194V19.3043Z" fill="black"/>
<path d="M16.6963 16.1738H13.5658C13.1336 16.1738 12.7832 16.5242 12.7832 16.9565V20.0869C12.7832 20.5191 13.1336 20.8695 13.5658 20.8695H16.6963C17.1285 20.8695 17.4789 20.5191 17.4789 20.0869V16.9565C17.4789 16.5243 17.1285 16.1738 16.6963 16.1738ZM15.9137 19.3043H14.3485V17.7391H15.9137V19.3043Z" fill="black"/>
</g>
<defs>
<clipPath id="clip0_1560_2009">
<rect width="24" height="24" fill="white"/>
</clipPath>
</defs>
</svg>
